<mxfile host="app.diagrams.net" modified="2023-10-10T14:47:59.924Z" agent="Mozilla/5.0 (Windows NT 10.0; Win64; x64) AppleWebKit/537.36 (KHTML, like Gecko) Chrome/117.0.0.0 Safari/537.36" etag="WH__EkzURMDFCtSm2Rpb" version="22.0.4" type="github">
  <diagram id="kgpKYQtTHZ0yAKxKKP6v" name="Page-1">
    <mxGraphModel dx="1434" dy="758" grid="1" gridSize="10" guides="1" tooltips="1" connect="1" arrows="1" fold="1" page="1" pageScale="1" pageWidth="850" pageHeight="1100" math="0" shadow="0">
      <root>
        <mxCell id="0" />
        <mxCell id="1" parent="0" />
        <mxCell id="rz1NUizE8AmCartYALVX-5" style="edgeStyle=orthogonalEdgeStyle;rounded=0;orthogonalLoop=1;jettySize=auto;html=1;" edge="1" parent="1" source="rz1NUizE8AmCartYALVX-4" target="rz1NUizE8AmCartYALVX-6">
          <mxGeometry relative="1" as="geometry">
            <mxPoint x="170" y="270" as="targetPoint" />
          </mxGeometry>
        </mxCell>
        <mxCell id="rz1NUizE8AmCartYALVX-4" value="&lt;font style=&quot;vertical-align: inherit;&quot;&gt;&lt;font style=&quot;vertical-align: inherit;&quot;&gt;Inicio&lt;/font&gt;&lt;/font&gt;" style="rounded=1;whiteSpace=wrap;html=1;arcSize=50;" vertex="1" parent="1">
          <mxGeometry x="110" y="110" width="120" height="60" as="geometry" />
        </mxCell>
        <mxCell id="rz1NUizE8AmCartYALVX-8" style="edgeStyle=orthogonalEdgeStyle;rounded=0;orthogonalLoop=1;jettySize=auto;html=1;exitX=0.5;exitY=1;exitDx=0;exitDy=0;entryX=0.605;entryY=-0.027;entryDx=0;entryDy=0;entryPerimeter=0;" edge="1" parent="1" source="rz1NUizE8AmCartYALVX-6" target="rz1NUizE8AmCartYALVX-7">
          <mxGeometry relative="1" as="geometry">
            <mxPoint x="170" y="320" as="targetPoint" />
          </mxGeometry>
        </mxCell>
        <mxCell id="rz1NUizE8AmCartYALVX-6" value="&lt;font style=&quot;vertical-align: inherit;&quot;&gt;&lt;font style=&quot;vertical-align: inherit;&quot;&gt;Zerar os contadores&lt;/font&gt;&lt;/font&gt;" style="rounded=0;whiteSpace=wrap;html=1;" vertex="1" parent="1">
          <mxGeometry x="110" y="240" width="120" height="60" as="geometry" />
        </mxCell>
        <mxCell id="rz1NUizE8AmCartYALVX-9" style="edgeStyle=orthogonalEdgeStyle;rounded=0;orthogonalLoop=1;jettySize=auto;html=1;entryX=0.493;entryY=0.156;entryDx=0;entryDy=0;entryPerimeter=0;" edge="1" parent="1" source="rz1NUizE8AmCartYALVX-7" target="rz1NUizE8AmCartYALVX-10">
          <mxGeometry relative="1" as="geometry">
            <mxPoint x="180" y="600" as="targetPoint" />
          </mxGeometry>
        </mxCell>
        <mxCell id="rz1NUizE8AmCartYALVX-7" value="&lt;div style=&quot;text-align: justify;&quot;&gt;&lt;span style=&quot;font-size: 14px; background-color: initial;&quot;&gt;|1| Candidato 1&lt;/span&gt;&lt;/div&gt;&lt;font style=&quot;vertical-align: inherit;&quot;&gt;&lt;div style=&quot;text-align: justify;&quot;&gt;&lt;span style=&quot;font-size: 14px; background-color: initial;&quot;&gt;|2| Candidato 2&lt;/span&gt;&lt;/div&gt;&lt;font style=&quot;vertical-align: inherit; font-size: 14px;&quot;&gt;&lt;div style=&quot;text-align: justify;&quot;&gt;&lt;span style=&quot;background-color: initial;&quot;&gt;|3| Candidato 3&lt;/span&gt;&lt;/div&gt;&lt;div style=&quot;text-align: justify;&quot;&gt;&lt;span style=&quot;background-color: initial;&quot;&gt;|5| Vota Branco&lt;/span&gt;&lt;/div&gt;&lt;div style=&quot;text-align: justify;&quot;&gt;&lt;span style=&quot;background-color: initial;&quot;&gt;|8| Vota Nulo&lt;/span&gt;&lt;/div&gt;&lt;/font&gt;&lt;/font&gt;" style="shape=display;whiteSpace=wrap;html=1;" vertex="1" parent="1">
          <mxGeometry x="60" y="400" width="210" height="110" as="geometry" />
        </mxCell>
        <mxCell id="rz1NUizE8AmCartYALVX-21" value="" style="edgeStyle=orthogonalEdgeStyle;rounded=0;orthogonalLoop=1;jettySize=auto;html=1;" edge="1" parent="1" source="rz1NUizE8AmCartYALVX-10" target="rz1NUizE8AmCartYALVX-20">
          <mxGeometry relative="1" as="geometry" />
        </mxCell>
        <mxCell id="rz1NUizE8AmCartYALVX-10" value="&lt;font style=&quot;vertical-align: inherit;&quot;&gt;&lt;font style=&quot;vertical-align: inherit;&quot;&gt;VOTO&lt;/font&gt;&lt;/font&gt;" style="shape=manualInput;whiteSpace=wrap;html=1;" vertex="1" parent="1">
          <mxGeometry x="80" y="560" width="140" height="90" as="geometry" />
        </mxCell>
        <mxCell id="rz1NUizE8AmCartYALVX-24" value="" style="edgeStyle=orthogonalEdgeStyle;rounded=0;orthogonalLoop=1;jettySize=auto;html=1;" edge="1" parent="1" source="rz1NUizE8AmCartYALVX-20" target="rz1NUizE8AmCartYALVX-23">
          <mxGeometry relative="1" as="geometry" />
        </mxCell>
        <mxCell id="rz1NUizE8AmCartYALVX-28" value="" style="edgeStyle=orthogonalEdgeStyle;rounded=0;orthogonalLoop=1;jettySize=auto;html=1;entryX=0.5;entryY=0;entryDx=0;entryDy=0;" edge="1" parent="1" source="rz1NUizE8AmCartYALVX-20" target="rz1NUizE8AmCartYALVX-27">
          <mxGeometry relative="1" as="geometry" />
        </mxCell>
        <mxCell id="rz1NUizE8AmCartYALVX-20" value="&lt;font style=&quot;vertical-align: inherit;&quot;&gt;&lt;font style=&quot;vertical-align: inherit;&quot;&gt;VOTO = 1&lt;/font&gt;&lt;/font&gt;" style="rhombus;whiteSpace=wrap;html=1;" vertex="1" parent="1">
          <mxGeometry x="110" y="735" width="80" height="80" as="geometry" />
        </mxCell>
        <mxCell id="rz1NUizE8AmCartYALVX-35" value="" style="edgeStyle=orthogonalEdgeStyle;rounded=0;orthogonalLoop=1;jettySize=auto;html=1;" edge="1" parent="1" source="rz1NUizE8AmCartYALVX-23" target="rz1NUizE8AmCartYALVX-34">
          <mxGeometry relative="1" as="geometry" />
        </mxCell>
        <mxCell id="rz1NUizE8AmCartYALVX-23" value="&lt;font style=&quot;vertical-align: inherit;&quot;&gt;&lt;font style=&quot;vertical-align: inherit;&quot;&gt;Adicionar um voto ao contador do candidato 1&lt;/font&gt;&lt;/font&gt;" style="whiteSpace=wrap;html=1;" vertex="1" parent="1">
          <mxGeometry x="90" y="905" width="120" height="60" as="geometry" />
        </mxCell>
        <mxCell id="rz1NUizE8AmCartYALVX-30" value="" style="edgeStyle=orthogonalEdgeStyle;rounded=0;orthogonalLoop=1;jettySize=auto;html=1;" edge="1" parent="1" source="rz1NUizE8AmCartYALVX-27" target="rz1NUizE8AmCartYALVX-29">
          <mxGeometry relative="1" as="geometry" />
        </mxCell>
        <mxCell id="rz1NUizE8AmCartYALVX-32" value="" style="edgeStyle=orthogonalEdgeStyle;rounded=0;orthogonalLoop=1;jettySize=auto;html=1;entryX=0.5;entryY=0;entryDx=0;entryDy=0;" edge="1" parent="1" source="rz1NUizE8AmCartYALVX-27" target="rz1NUizE8AmCartYALVX-31">
          <mxGeometry relative="1" as="geometry" />
        </mxCell>
        <mxCell id="rz1NUizE8AmCartYALVX-27" value="&lt;font style=&quot;vertical-align: inherit;&quot;&gt;&lt;font style=&quot;vertical-align: inherit;&quot;&gt;VOTO = 2&lt;/font&gt;&lt;/font&gt;" style="rhombus;whiteSpace=wrap;html=1;" vertex="1" parent="1">
          <mxGeometry x="310" y="815" width="80" height="80" as="geometry" />
        </mxCell>
        <mxCell id="rz1NUizE8AmCartYALVX-29" value="&lt;font style=&quot;vertical-align: inherit;&quot;&gt;&lt;font style=&quot;vertical-align: inherit;&quot;&gt;&lt;font style=&quot;vertical-align: inherit;&quot;&gt;&lt;font style=&quot;vertical-align: inherit;&quot;&gt;Somar 1 voto ao contador do candidato 2&lt;/font&gt;&lt;/font&gt;&lt;/font&gt;&lt;/font&gt;" style="whiteSpace=wrap;html=1;" vertex="1" parent="1">
          <mxGeometry x="290" y="990" width="120" height="60" as="geometry" />
        </mxCell>
        <mxCell id="rz1NUizE8AmCartYALVX-37" value="" style="edgeStyle=orthogonalEdgeStyle;rounded=0;orthogonalLoop=1;jettySize=auto;html=1;" edge="1" parent="1" source="rz1NUizE8AmCartYALVX-31" target="rz1NUizE8AmCartYALVX-36">
          <mxGeometry relative="1" as="geometry" />
        </mxCell>
        <mxCell id="rz1NUizE8AmCartYALVX-39" value="" style="edgeStyle=orthogonalEdgeStyle;rounded=0;orthogonalLoop=1;jettySize=auto;html=1;entryX=0.5;entryY=0;entryDx=0;entryDy=0;" edge="1" parent="1" source="rz1NUizE8AmCartYALVX-31" target="rz1NUizE8AmCartYALVX-38">
          <mxGeometry relative="1" as="geometry" />
        </mxCell>
        <mxCell id="rz1NUizE8AmCartYALVX-31" value="&lt;font style=&quot;vertical-align: inherit;&quot;&gt;&lt;font style=&quot;vertical-align: inherit;&quot;&gt;VOTO = 3&lt;/font&gt;&lt;/font&gt;" style="rhombus;whiteSpace=wrap;html=1;" vertex="1" parent="1">
          <mxGeometry x="550" y="895" width="80" height="80" as="geometry" />
        </mxCell>
        <mxCell id="rz1NUizE8AmCartYALVX-47" style="edgeStyle=orthogonalEdgeStyle;rounded=0;orthogonalLoop=1;jettySize=auto;html=1;entryX=0;entryY=0.5;entryDx=0;entryDy=0;entryPerimeter=0;" edge="1" parent="1" source="rz1NUizE8AmCartYALVX-34" target="rz1NUizE8AmCartYALVX-7">
          <mxGeometry relative="1" as="geometry">
            <mxPoint x="20" y="313" as="targetPoint" />
            <Array as="points">
              <mxPoint x="40" y="1520" />
              <mxPoint x="40" y="455" />
            </Array>
          </mxGeometry>
        </mxCell>
        <mxCell id="rz1NUizE8AmCartYALVX-34" value="&lt;font style=&quot;vertical-align: inherit;&quot;&gt;&lt;font style=&quot;vertical-align: inherit;&quot;&gt;VOTO = 0&lt;/font&gt;&lt;/font&gt;" style="rhombus;whiteSpace=wrap;html=1;" vertex="1" parent="1">
          <mxGeometry x="110" y="1480" width="80" height="80" as="geometry" />
        </mxCell>
        <mxCell id="rz1NUizE8AmCartYALVX-36" value="&lt;font style=&quot;vertical-align: inherit;&quot;&gt;&lt;font style=&quot;vertical-align: inherit;&quot;&gt;&lt;font style=&quot;vertical-align: inherit;&quot;&gt;&lt;font style=&quot;vertical-align: inherit;&quot;&gt;Somar 1 voto ao contador do candidato 3&lt;/font&gt;&lt;/font&gt;&lt;/font&gt;&lt;/font&gt;" style="whiteSpace=wrap;html=1;" vertex="1" parent="1">
          <mxGeometry x="530" y="1065" width="120" height="60" as="geometry" />
        </mxCell>
        <mxCell id="rz1NUizE8AmCartYALVX-41" value="" style="edgeStyle=orthogonalEdgeStyle;rounded=0;orthogonalLoop=1;jettySize=auto;html=1;" edge="1" parent="1" source="rz1NUizE8AmCartYALVX-38" target="rz1NUizE8AmCartYALVX-40">
          <mxGeometry relative="1" as="geometry" />
        </mxCell>
        <mxCell id="rz1NUizE8AmCartYALVX-43" value="" style="edgeStyle=orthogonalEdgeStyle;rounded=0;orthogonalLoop=1;jettySize=auto;html=1;entryX=0.5;entryY=0;entryDx=0;entryDy=0;" edge="1" parent="1" source="rz1NUizE8AmCartYALVX-38" target="rz1NUizE8AmCartYALVX-42">
          <mxGeometry relative="1" as="geometry" />
        </mxCell>
        <mxCell id="rz1NUizE8AmCartYALVX-38" value="&lt;font style=&quot;vertical-align: inherit;&quot;&gt;&lt;font style=&quot;vertical-align: inherit;&quot;&gt;&lt;font style=&quot;vertical-align: inherit;&quot;&gt;&lt;font style=&quot;vertical-align: inherit;&quot;&gt;VOTO = 5&lt;/font&gt;&lt;/font&gt;&lt;/font&gt;&lt;/font&gt;" style="rhombus;whiteSpace=wrap;html=1;" vertex="1" parent="1">
          <mxGeometry x="770" y="960" width="80" height="80" as="geometry" />
        </mxCell>
        <mxCell id="rz1NUizE8AmCartYALVX-40" value="&lt;font style=&quot;vertical-align: inherit;&quot;&gt;&lt;font style=&quot;vertical-align: inherit;&quot;&gt;Smar 1 voto ao contador do branco&lt;/font&gt;&lt;/font&gt;" style="whiteSpace=wrap;html=1;" vertex="1" parent="1">
          <mxGeometry x="750" y="1130" width="120" height="60" as="geometry" />
        </mxCell>
        <mxCell id="rz1NUizE8AmCartYALVX-45" value="" style="edgeStyle=orthogonalEdgeStyle;rounded=0;orthogonalLoop=1;jettySize=auto;html=1;" edge="1" parent="1" source="rz1NUizE8AmCartYALVX-42" target="rz1NUizE8AmCartYALVX-44">
          <mxGeometry relative="1" as="geometry" />
        </mxCell>
        <mxCell id="rz1NUizE8AmCartYALVX-42" value="&lt;font style=&quot;vertical-align: inherit;&quot;&gt;&lt;font style=&quot;vertical-align: inherit;&quot;&gt;&lt;font style=&quot;vertical-align: inherit;&quot;&gt;&lt;font style=&quot;vertical-align: inherit;&quot;&gt;VOTO = 8&lt;/font&gt;&lt;/font&gt;&lt;/font&gt;&lt;/font&gt;" style="rhombus;whiteSpace=wrap;html=1;" vertex="1" parent="1">
          <mxGeometry x="990" y="1050" width="80" height="80" as="geometry" />
        </mxCell>
        <mxCell id="rz1NUizE8AmCartYALVX-46" style="edgeStyle=orthogonalEdgeStyle;rounded=0;orthogonalLoop=1;jettySize=auto;html=1;entryX=1;entryY=0.5;entryDx=0;entryDy=0;" edge="1" parent="1" source="rz1NUizE8AmCartYALVX-44" target="rz1NUizE8AmCartYALVX-34">
          <mxGeometry relative="1" as="geometry">
            <Array as="points">
              <mxPoint x="1030" y="1520" />
            </Array>
          </mxGeometry>
        </mxCell>
        <mxCell id="rz1NUizE8AmCartYALVX-44" value="&lt;font style=&quot;vertical-align: inherit;&quot;&gt;&lt;font style=&quot;vertical-align: inherit;&quot;&gt;Somar 1 voto no contador do nulo&lt;/font&gt;&lt;/font&gt;" style="whiteSpace=wrap;html=1;" vertex="1" parent="1">
          <mxGeometry x="970" y="1220" width="120" height="60" as="geometry" />
        </mxCell>
        <mxCell id="rz1NUizE8AmCartYALVX-55" value="" style="edgeStyle=orthogonalEdgeStyle;rounded=0;orthogonalLoop=1;jettySize=auto;html=1;" edge="1" parent="1" source="rz1NUizE8AmCartYALVX-50" target="rz1NUizE8AmCartYALVX-54">
          <mxGeometry relative="1" as="geometry" />
        </mxCell>
        <mxCell id="rz1NUizE8AmCartYALVX-50" value="Total de Votos do Candidato 1&amp;nbsp;" style="shape=display;whiteSpace=wrap;html=1;" vertex="1" parent="1">
          <mxGeometry x="60" y="1630" width="170" height="90" as="geometry" />
        </mxCell>
        <mxCell id="rz1NUizE8AmCartYALVX-52" style="edgeStyle=orthogonalEdgeStyle;rounded=0;orthogonalLoop=1;jettySize=auto;html=1;entryX=0.682;entryY=0;entryDx=0;entryDy=0;entryPerimeter=0;" edge="1" parent="1" source="rz1NUizE8AmCartYALVX-34" target="rz1NUizE8AmCartYALVX-50">
          <mxGeometry relative="1" as="geometry" />
        </mxCell>
        <mxCell id="rz1NUizE8AmCartYALVX-57" value="" style="edgeStyle=orthogonalEdgeStyle;rounded=0;orthogonalLoop=1;jettySize=auto;html=1;" edge="1" parent="1" source="rz1NUizE8AmCartYALVX-54" target="rz1NUizE8AmCartYALVX-56">
          <mxGeometry relative="1" as="geometry" />
        </mxCell>
        <mxCell id="rz1NUizE8AmCartYALVX-54" value="Total de votos do Candidato 2" style="shape=display;whiteSpace=wrap;html=1;" vertex="1" parent="1">
          <mxGeometry x="60" y="1780" width="170" height="90" as="geometry" />
        </mxCell>
        <mxCell id="rz1NUizE8AmCartYALVX-94" value="" style="edgeStyle=orthogonalEdgeStyle;rounded=0;orthogonalLoop=1;jettySize=auto;html=1;" edge="1" parent="1" source="rz1NUizE8AmCartYALVX-56" target="rz1NUizE8AmCartYALVX-93">
          <mxGeometry relative="1" as="geometry" />
        </mxCell>
        <mxCell id="rz1NUizE8AmCartYALVX-56" value="Total de votos do Candidato 3" style="shape=display;whiteSpace=wrap;html=1;" vertex="1" parent="1">
          <mxGeometry x="60" y="1940" width="170" height="90" as="geometry" />
        </mxCell>
        <mxCell id="rz1NUizE8AmCartYALVX-103" style="edgeStyle=orthogonalEdgeStyle;rounded=0;orthogonalLoop=1;jettySize=auto;html=1;entryX=0.5;entryY=0;entryDx=0;entryDy=0;" edge="1" parent="1" source="rz1NUizE8AmCartYALVX-58" target="rz1NUizE8AmCartYALVX-60">
          <mxGeometry relative="1" as="geometry" />
        </mxCell>
        <mxCell id="rz1NUizE8AmCartYALVX-58" value="c1 &amp;gt; c2&lt;br&gt;e&lt;br&gt;c1 &amp;gt; c3" style="rhombus;whiteSpace=wrap;html=1;" vertex="1" parent="1">
          <mxGeometry x="105" y="2220" width="80" height="80" as="geometry" />
        </mxCell>
        <mxCell id="rz1NUizE8AmCartYALVX-104" value="" style="edgeStyle=orthogonalEdgeStyle;rounded=0;orthogonalLoop=1;jettySize=auto;html=1;" edge="1" parent="1" source="rz1NUizE8AmCartYALVX-60" target="rz1NUizE8AmCartYALVX-62">
          <mxGeometry relative="1" as="geometry">
            <Array as="points">
              <mxPoint x="530" y="2310" />
            </Array>
          </mxGeometry>
        </mxCell>
        <mxCell id="rz1NUizE8AmCartYALVX-60" value="c2 &amp;gt; c1&lt;br&gt;e&amp;nbsp;&lt;br&gt;c2 &amp;gt; c3" style="rhombus;whiteSpace=wrap;html=1;" vertex="1" parent="1">
          <mxGeometry x="310" y="2280" width="80" height="80" as="geometry" />
        </mxCell>
        <mxCell id="rz1NUizE8AmCartYALVX-97" value="" style="edgeStyle=orthogonalEdgeStyle;rounded=0;orthogonalLoop=1;jettySize=auto;html=1;" edge="1" parent="1" source="rz1NUizE8AmCartYALVX-62" target="rz1NUizE8AmCartYALVX-78">
          <mxGeometry relative="1" as="geometry">
            <Array as="points">
              <mxPoint x="530" y="2480" />
              <mxPoint x="530" y="2480" />
            </Array>
          </mxGeometry>
        </mxCell>
        <mxCell id="rz1NUizE8AmCartYALVX-62" value="c3 &amp;gt; c2&lt;br&gt;e&lt;br&gt;c3 &amp;gt; c1" style="rhombus;whiteSpace=wrap;html=1;" vertex="1" parent="1">
          <mxGeometry x="490" y="2330" width="80" height="80" as="geometry" />
        </mxCell>
        <mxCell id="rz1NUizE8AmCartYALVX-90" style="edgeStyle=orthogonalEdgeStyle;rounded=0;orthogonalLoop=1;jettySize=auto;html=1;entryX=0.5;entryY=0;entryDx=0;entryDy=0;" edge="1" parent="1" source="rz1NUizE8AmCartYALVX-71" target="rz1NUizE8AmCartYALVX-75">
          <mxGeometry relative="1" as="geometry" />
        </mxCell>
        <mxCell id="rz1NUizE8AmCartYALVX-71" value="Mostrar o ganhador e seu percentual;" style="shape=display;whiteSpace=wrap;html=1;size=0.25;" vertex="1" parent="1">
          <mxGeometry x="50" y="2560" width="180" height="90" as="geometry" />
        </mxCell>
        <mxCell id="rz1NUizE8AmCartYALVX-72" value="Candidato 1 ganhador" style="shape=display;whiteSpace=wrap;html=1;" vertex="1" parent="1">
          <mxGeometry x="45" y="2330" width="190" height="100" as="geometry" />
        </mxCell>
        <mxCell id="rz1NUizE8AmCartYALVX-73" style="edgeStyle=orthogonalEdgeStyle;rounded=0;orthogonalLoop=1;jettySize=auto;html=1;entryX=0.532;entryY=0;entryDx=0;entryDy=0;entryPerimeter=0;" edge="1" parent="1" source="rz1NUizE8AmCartYALVX-58" target="rz1NUizE8AmCartYALVX-72">
          <mxGeometry relative="1" as="geometry">
            <Array as="points">
              <mxPoint x="146" y="2280" />
              <mxPoint x="146" y="2280" />
            </Array>
          </mxGeometry>
        </mxCell>
        <mxCell id="rz1NUizE8AmCartYALVX-74" style="edgeStyle=orthogonalEdgeStyle;rounded=0;orthogonalLoop=1;jettySize=auto;html=1;entryX=0;entryY=0;entryDx=90;entryDy=0;entryPerimeter=0;" edge="1" parent="1" source="rz1NUizE8AmCartYALVX-72" target="rz1NUizE8AmCartYALVX-71">
          <mxGeometry relative="1" as="geometry" />
        </mxCell>
        <mxCell id="rz1NUizE8AmCartYALVX-75" value="FIM" style="rounded=1;whiteSpace=wrap;html=1;arcSize=48;" vertex="1" parent="1">
          <mxGeometry x="80" y="2750" width="120" height="60" as="geometry" />
        </mxCell>
        <mxCell id="rz1NUizE8AmCartYALVX-76" value="Candidato 2 ganhador" style="shape=display;whiteSpace=wrap;html=1;" vertex="1" parent="1">
          <mxGeometry x="280" y="2430" width="140" height="70" as="geometry" />
        </mxCell>
        <mxCell id="rz1NUizE8AmCartYALVX-77" style="edgeStyle=orthogonalEdgeStyle;rounded=0;orthogonalLoop=1;jettySize=auto;html=1;entryX=0;entryY=0;entryDx=70;entryDy=0;entryPerimeter=0;" edge="1" parent="1" source="rz1NUizE8AmCartYALVX-60" target="rz1NUizE8AmCartYALVX-76">
          <mxGeometry relative="1" as="geometry" />
        </mxCell>
        <mxCell id="rz1NUizE8AmCartYALVX-78" value="Candidato 3 ganhador" style="shape=display;whiteSpace=wrap;html=1;" vertex="1" parent="1">
          <mxGeometry x="440" y="2500" width="160" height="75" as="geometry" />
        </mxCell>
        <mxCell id="rz1NUizE8AmCartYALVX-82" style="edgeStyle=orthogonalEdgeStyle;rounded=0;orthogonalLoop=1;jettySize=auto;html=1;entryX=0.889;entryY=0.111;entryDx=0;entryDy=0;entryPerimeter=0;" edge="1" parent="1" source="rz1NUizE8AmCartYALVX-76" target="rz1NUizE8AmCartYALVX-71">
          <mxGeometry relative="1" as="geometry" />
        </mxCell>
        <mxCell id="rz1NUizE8AmCartYALVX-83" style="edgeStyle=orthogonalEdgeStyle;rounded=0;orthogonalLoop=1;jettySize=auto;html=1;entryX=0.989;entryY=0.644;entryDx=0;entryDy=0;entryPerimeter=0;" edge="1" parent="1" source="rz1NUizE8AmCartYALVX-78" target="rz1NUizE8AmCartYALVX-71">
          <mxGeometry relative="1" as="geometry" />
        </mxCell>
        <mxCell id="rz1NUizE8AmCartYALVX-89" style="edgeStyle=orthogonalEdgeStyle;rounded=0;orthogonalLoop=1;jettySize=auto;html=1;entryX=1;entryY=0.75;entryDx=0;entryDy=0;exitX=0;exitY=0;exitDx=92.5;exitDy=80;exitPerimeter=0;" edge="1" parent="1" source="rz1NUizE8AmCartYALVX-88" target="rz1NUizE8AmCartYALVX-75">
          <mxGeometry relative="1" as="geometry">
            <Array as="points">
              <mxPoint x="703" y="2780" />
              <mxPoint x="200" y="2780" />
            </Array>
          </mxGeometry>
        </mxCell>
        <mxCell id="rz1NUizE8AmCartYALVX-88" value="EMPATE" style="shape=display;whiteSpace=wrap;html=1;" vertex="1" parent="1">
          <mxGeometry x="610" y="2570" width="180" height="80" as="geometry" />
        </mxCell>
        <mxCell id="rz1NUizE8AmCartYALVX-102" style="edgeStyle=orthogonalEdgeStyle;rounded=0;orthogonalLoop=1;jettySize=auto;html=1;entryX=0.5;entryY=0;entryDx=0;entryDy=0;" edge="1" parent="1" source="rz1NUizE8AmCartYALVX-93" target="rz1NUizE8AmCartYALVX-58">
          <mxGeometry relative="1" as="geometry" />
        </mxCell>
        <mxCell id="rz1NUizE8AmCartYALVX-93" value="Total de Votos brancos e Nulos" style="shape=display;whiteSpace=wrap;html=1;" vertex="1" parent="1">
          <mxGeometry x="60" y="2090" width="170" height="90" as="geometry" />
        </mxCell>
        <mxCell id="rz1NUizE8AmCartYALVX-95" style="edgeStyle=orthogonalEdgeStyle;rounded=0;orthogonalLoop=1;jettySize=auto;html=1;entryX=0;entryY=0;entryDx=92.5;entryDy=0;entryPerimeter=0;" edge="1" parent="1" source="rz1NUizE8AmCartYALVX-62" target="rz1NUizE8AmCartYALVX-88">
          <mxGeometry relative="1" as="geometry" />
        </mxCell>
      </root>
    </mxGraphModel>
  </diagram>
</mxfile>
